<svg xmlns="http://www.w3.org/2000/svg" width="35.999" height="30" viewBox="0 0 35.999 30">
  <g id="hey_isologo" transform="translate(0.999)">
    <path id="Trazado_1" data-name="Trazado 1" d="M35.756,9.927A7.969,7.969,0,0,0,31.505.812,8.054,8.054,0,0,0,27.987,0H12.945a8.037,8.037,0,0,0-5.4,2.079A7.955,7.955,0,0,0,4.965,7.231a1.531,1.531,0,0,0-.175.435L.04,28.116a1.536,1.536,0,0,0,.834,1.731A1.552,1.552,0,0,0,1.546,30H23.88a1.579,1.579,0,0,0,.349-.04q.4.04.81.04a8,8,0,0,0,7.9-6.641Z" transform="translate(-1)" fill="#f0efec"/>
  </g>
</svg>
